<mxfile host="app.diagrams.net" agent="Mozilla/5.0 (X11; Linux x86_64) AppleWebKit/537.36 (KHTML, like Gecko) Chrome/135.0.0.0 Safari/537.36" version="26.2.13">
  <diagram name="Page-1" id="BKeVn00d2Rmsv9YmMOTc">
    <mxGraphModel dx="1396" dy="748" grid="1" gridSize="10" guides="1" tooltips="1" connect="1" arrows="1" fold="1" page="1" pageScale="1" pageWidth="850" pageHeight="1100" math="0" shadow="0">
      <root>
        <mxCell id="0" />
        <mxCell id="1" parent="0" />
        <mxCell id="U1jFTeS-qBeuXj33KEKu-3" value="" style="rounded=0;whiteSpace=wrap;html=1;fillColor=#fff2cc;strokeColor=#d6b656;movable=0;resizable=0;rotatable=0;deletable=0;editable=0;locked=1;connectable=0;" parent="1" vertex="1">
          <mxGeometry x="85" y="400" width="680" height="240" as="geometry" />
        </mxCell>
        <mxCell id="U1jFTeS-qBeuXj33KEKu-4" value="" style="rounded=0;whiteSpace=wrap;html=1;fillColor=#dae8fc;strokeColor=#6c8ebf;movable=0;resizable=0;rotatable=0;deletable=0;editable=0;locked=1;connectable=0;" parent="1" vertex="1">
          <mxGeometry x="85" y="640" width="680" height="240" as="geometry" />
        </mxCell>
        <mxCell id="U1jFTeS-qBeuXj33KEKu-5" value="" style="rounded=0;whiteSpace=wrap;html=1;fillColor=#f8cecc;strokeColor=#b85450;movable=0;resizable=0;rotatable=0;deletable=0;editable=0;locked=1;connectable=0;" parent="1" vertex="1">
          <mxGeometry x="85" y="880" width="680" height="240" as="geometry" />
        </mxCell>
        <mxCell id="U1jFTeS-qBeuXj33KEKu-7" value="" style="rounded=0;whiteSpace=wrap;html=1;fillColor=#d5e8d4;strokeColor=#82b366;movable=0;resizable=0;rotatable=0;deletable=0;editable=0;locked=1;connectable=0;" parent="1" vertex="1">
          <mxGeometry x="85" y="200" width="680" height="200" as="geometry" />
        </mxCell>
        <mxCell id="U1jFTeS-qBeuXj33KEKu-10" value="" style="rounded=0;whiteSpace=wrap;html=1;movable=0;resizable=0;rotatable=0;deletable=0;editable=0;locked=1;connectable=0;" parent="1" vertex="1">
          <mxGeometry x="365" y="940" width="120" height="180" as="geometry" />
        </mxCell>
        <mxCell id="U1jFTeS-qBeuXj33KEKu-15" value="" style="endArrow=none;html=1;rounded=0;entryX=1;entryY=0.5;entryDx=0;entryDy=0;fillColor=#f8cecc;strokeColor=#b85450;movable=0;resizable=0;rotatable=0;deletable=0;editable=0;locked=1;connectable=0;" parent="1" edge="1">
          <mxGeometry width="50" height="50" relative="1" as="geometry">
            <mxPoint x="90" y="330" as="sourcePoint" />
            <mxPoint x="765" y="330" as="targetPoint" />
            <Array as="points">
              <mxPoint x="90" y="330" />
            </Array>
          </mxGeometry>
        </mxCell>
        <mxCell id="U1jFTeS-qBeuXj33KEKu-16" value="" style="whiteSpace=wrap;html=1;aspect=fixed;movable=0;resizable=0;rotatable=0;deletable=0;editable=0;locked=1;connectable=0;" parent="1" vertex="1">
          <mxGeometry x="160" y="940" width="80" height="80" as="geometry" />
        </mxCell>
        <mxCell id="U1jFTeS-qBeuXj33KEKu-17" value="" style="whiteSpace=wrap;html=1;aspect=fixed;movable=0;resizable=0;rotatable=0;deletable=0;editable=0;locked=1;connectable=0;" parent="1" vertex="1">
          <mxGeometry x="610" y="930" width="80" height="80" as="geometry" />
        </mxCell>
        <mxCell id="U1jFTeS-qBeuXj33KEKu-18" value="" style="whiteSpace=wrap;html=1;aspect=fixed;movable=0;resizable=0;rotatable=0;deletable=0;editable=0;locked=1;connectable=0;" parent="1" vertex="1">
          <mxGeometry x="190" y="690" width="80" height="80" as="geometry" />
        </mxCell>
        <mxCell id="U1jFTeS-qBeuXj33KEKu-19" value="" style="whiteSpace=wrap;html=1;aspect=fixed;movable=0;resizable=0;rotatable=0;deletable=0;editable=0;locked=1;connectable=0;" parent="1" vertex="1">
          <mxGeometry x="610" y="690" width="80" height="80" as="geometry" />
        </mxCell>
        <mxCell id="U1jFTeS-qBeuXj33KEKu-20" value="" style="whiteSpace=wrap;html=1;aspect=fixed;movable=0;resizable=0;rotatable=0;deletable=0;editable=0;locked=1;connectable=0;" parent="1" vertex="1">
          <mxGeometry x="190" y="450" width="80" height="80" as="geometry" />
        </mxCell>
        <mxCell id="U1jFTeS-qBeuXj33KEKu-21" value="" style="whiteSpace=wrap;html=1;aspect=fixed;movable=0;resizable=0;rotatable=0;deletable=0;editable=0;locked=1;connectable=0;" parent="1" vertex="1">
          <mxGeometry x="610" y="450" width="80" height="80" as="geometry" />
        </mxCell>
        <mxCell id="U1jFTeS-qBeuXj33KEKu-23" value="" style="rounded=0;whiteSpace=wrap;html=1;movable=0;resizable=0;rotatable=0;deletable=0;editable=0;locked=1;connectable=0;" parent="1" vertex="1">
          <mxGeometry x="400" y="450" width="50" height="80" as="geometry" />
        </mxCell>
        <mxCell id="U1jFTeS-qBeuXj33KEKu-24" value="" style="endArrow=none;html=1;rounded=0;entryX=0;entryY=1;entryDx=0;entryDy=0;exitX=0.413;exitY=0;exitDx=0;exitDy=0;exitPerimeter=0;movable=0;resizable=0;rotatable=0;deletable=0;editable=0;locked=1;connectable=0;" parent="1" source="U1jFTeS-qBeuXj33KEKu-7" target="U1jFTeS-qBeuXj33KEKu-10" edge="1">
          <mxGeometry width="50" height="50" relative="1" as="geometry">
            <mxPoint x="410" y="430" as="sourcePoint" />
            <mxPoint x="460" y="380" as="targetPoint" />
          </mxGeometry>
        </mxCell>
        <mxCell id="U1jFTeS-qBeuXj33KEKu-25" value="" style="endArrow=none;html=1;rounded=0;entryX=0;entryY=1;entryDx=0;entryDy=0;exitX=0.413;exitY=0;exitDx=0;exitDy=0;exitPerimeter=0;movable=0;resizable=0;rotatable=0;deletable=0;editable=0;locked=1;connectable=0;" parent="1" edge="1">
          <mxGeometry width="50" height="50" relative="1" as="geometry">
            <mxPoint x="486" y="200" as="sourcePoint" />
            <mxPoint x="485" y="1120" as="targetPoint" />
          </mxGeometry>
        </mxCell>
        <mxCell id="U1jFTeS-qBeuXj33KEKu-26" value="Legenda&lt;div&gt;&lt;br&gt;&lt;/div&gt;" style="swimlane;fontStyle=0;childLayout=stackLayout;horizontal=1;startSize=30;horizontalStack=0;resizeParent=1;resizeParentMax=0;resizeLast=0;collapsible=1;marginBottom=0;whiteSpace=wrap;html=1;labelBackgroundColor=none;rounded=0;shadow=0;swimlaneLine=1;" parent="1" vertex="1">
          <mxGeometry x="85" y="1180" width="140" height="180" as="geometry">
            <mxRectangle x="85" y="1180" width="90" height="40" as="alternateBounds" />
          </mxGeometry>
        </mxCell>
        <mxCell id="U1jFTeS-qBeuXj33KEKu-27" value="Piano terra" style="text;strokeColor=none;fillColor=none;align=left;verticalAlign=middle;spacingLeft=4;spacingRight=4;overflow=hidden;points=[[0,0.5],[1,0.5]];portConstraint=eastwest;rotatable=0;whiteSpace=wrap;html=1;labelBackgroundColor=#FF3333;" parent="U1jFTeS-qBeuXj33KEKu-26" vertex="1">
          <mxGeometry y="30" width="140" height="30" as="geometry" />
        </mxCell>
        <mxCell id="U1jFTeS-qBeuXj33KEKu-28" value="Primo piano" style="text;strokeColor=none;fillColor=none;align=left;verticalAlign=middle;spacingLeft=4;spacingRight=4;overflow=hidden;points=[[0,0.5],[1,0.5]];portConstraint=eastwest;rotatable=0;whiteSpace=wrap;html=1;labelBackgroundColor=#99CCFF;" parent="U1jFTeS-qBeuXj33KEKu-26" vertex="1">
          <mxGeometry y="60" width="140" height="30" as="geometry" />
        </mxCell>
        <mxCell id="U1jFTeS-qBeuXj33KEKu-29" value="Secondo piano" style="text;strokeColor=none;fillColor=none;align=left;verticalAlign=middle;spacingLeft=4;spacingRight=4;overflow=hidden;points=[[0,0.5],[1,0.5]];portConstraint=eastwest;rotatable=0;whiteSpace=wrap;html=1;labelBackgroundColor=#FFFF99;" parent="U1jFTeS-qBeuXj33KEKu-26" vertex="1">
          <mxGeometry y="90" width="140" height="30" as="geometry" />
        </mxCell>
        <mxCell id="U1jFTeS-qBeuXj33KEKu-30" value="Soffita" style="text;strokeColor=none;fillColor=none;align=left;verticalAlign=middle;spacingLeft=4;spacingRight=4;overflow=hidden;points=[[0,0.5],[1,0.5]];portConstraint=eastwest;rotatable=0;whiteSpace=wrap;html=1;labelBackgroundColor=#B3FF66;" parent="U1jFTeS-qBeuXj33KEKu-26" vertex="1">
          <mxGeometry y="120" width="140" height="30" as="geometry" />
        </mxCell>
        <mxCell id="U1jFTeS-qBeuXj33KEKu-31" value="Inizio spiovenza tetto" style="text;strokeColor=none;fillColor=none;align=left;verticalAlign=middle;spacingLeft=4;spacingRight=4;overflow=hidden;points=[[0,0.5],[1,0.5]];portConstraint=eastwest;rotatable=0;whiteSpace=wrap;html=1;labelBackgroundColor=none;" parent="U1jFTeS-qBeuXj33KEKu-26" vertex="1">
          <mxGeometry y="150" width="140" height="30" as="geometry" />
        </mxCell>
        <mxCell id="U1jFTeS-qBeuXj33KEKu-32" value="" style="endArrow=none;html=1;rounded=0;fillColor=#f8cecc;strokeColor=#b85450;" parent="1" edge="1">
          <mxGeometry width="50" height="50" relative="1" as="geometry">
            <mxPoint x="220" y="1344.5" as="sourcePoint" />
            <mxPoint x="290" y="1344.5" as="targetPoint" />
            <Array as="points">
              <mxPoint x="260" y="1344.5" />
              <mxPoint x="270" y="1344.5" />
            </Array>
          </mxGeometry>
        </mxCell>
        <mxCell id="U1jFTeS-qBeuXj33KEKu-33" value="" style="sketch=0;pointerEvents=1;shadow=0;dashed=0;html=1;strokeColor=#A50040;fillColor=#d80073;aspect=fixed;labelPosition=center;verticalLabelPosition=bottom;verticalAlign=top;align=center;outlineConnect=0;shape=mxgraph.vvd.ethernet_port;fontColor=#ffffff;direction=east;" parent="1" vertex="1">
          <mxGeometry x="250" y="910" width="40" height="40" as="geometry" />
        </mxCell>
        <mxCell id="U1jFTeS-qBeuXj33KEKu-34" value="" style="sketch=0;pointerEvents=1;shadow=0;dashed=0;html=1;strokeColor=#2D7600;fillColor=#60a917;aspect=fixed;labelPosition=center;verticalLabelPosition=bottom;verticalAlign=top;align=center;outlineConnect=0;shape=mxgraph.vvd.ethernet_port;fontColor=#ffffff;" parent="1" vertex="1">
          <mxGeometry x="610" y="780" width="40" height="40" as="geometry" />
        </mxCell>
        <mxCell id="U1jFTeS-qBeuXj33KEKu-35" value="" style="sketch=0;pointerEvents=1;shadow=0;dashed=0;html=1;strokeColor=#2D7600;fillColor=#60a917;aspect=fixed;labelPosition=center;verticalLabelPosition=bottom;verticalAlign=top;align=center;outlineConnect=0;shape=mxgraph.vvd.ethernet_port;fontColor=#ffffff;" parent="1" vertex="1">
          <mxGeometry x="600" y="540" width="40" height="40" as="geometry" />
        </mxCell>
        <mxCell id="euSaoh8zayoA-fX9nJFJ-11" style="edgeStyle=orthogonalEdgeStyle;rounded=1;orthogonalLoop=1;jettySize=auto;html=1;entryX=0;entryY=1;entryDx=0;entryDy=0;strokeWidth=3;fillColor=#0050ef;strokeColor=#001DBC;curved=0;" edge="1" parent="1" source="U1jFTeS-qBeuXj33KEKu-36" target="euSaoh8zayoA-fX9nJFJ-8">
          <mxGeometry relative="1" as="geometry" />
        </mxCell>
        <mxCell id="U1jFTeS-qBeuXj33KEKu-36" value="" style="sketch=0;pointerEvents=1;shadow=0;dashed=0;html=1;strokeColor=#2D7600;fillColor=#60a917;aspect=fixed;labelPosition=center;verticalLabelPosition=bottom;verticalAlign=top;align=center;outlineConnect=0;shape=mxgraph.vvd.ethernet_port;fontColor=#ffffff;" parent="1" vertex="1">
          <mxGeometry x="120" y="540" width="40" height="40" as="geometry" />
        </mxCell>
        <mxCell id="U1jFTeS-qBeuXj33KEKu-37" value="" style="rounded=0;whiteSpace=wrap;html=1;movable=0;resizable=0;rotatable=0;deletable=0;editable=0;locked=1;connectable=0;" parent="1" vertex="1">
          <mxGeometry x="373" y="220" width="105" height="80" as="geometry" />
        </mxCell>
        <mxCell id="Ly270dYGAzZ1lEFUVdB3-1" style="edgeStyle=orthogonalEdgeStyle;rounded=1;orthogonalLoop=1;jettySize=auto;html=1;strokeColor=#B09500;curved=0;strokeWidth=3;fillColor=#e3c800;" parent="1" source="euSaoh8zayoA-fX9nJFJ-3" edge="1">
          <mxGeometry relative="1" as="geometry">
            <mxPoint x="335" y="390" as="targetPoint" />
          </mxGeometry>
        </mxCell>
        <mxCell id="U1jFTeS-qBeuXj33KEKu-39" value="" style="pointerEvents=1;verticalLabelPosition=bottom;shadow=0;dashed=0;align=center;html=1;verticalAlign=top;shape=mxgraph.electrical.miscellaneous.coaxial_jack_plug" parent="1" vertex="1">
          <mxGeometry x="700" y="1040" width="40" height="70" as="geometry" />
        </mxCell>
        <mxCell id="euSaoh8zayoA-fX9nJFJ-2" value="" style="edgeStyle=orthogonalEdgeStyle;rounded=1;orthogonalLoop=1;jettySize=auto;html=1;strokeColor=#B09500;curved=0;strokeWidth=3;fillColor=#e3c800;" edge="1" parent="1" source="U1jFTeS-qBeuXj33KEKu-39" target="euSaoh8zayoA-fX9nJFJ-1">
          <mxGeometry relative="1" as="geometry">
            <mxPoint x="330" y="360" as="targetPoint" />
            <mxPoint x="700" y="1075" as="sourcePoint" />
            <Array as="points">
              <mxPoint x="510" y="1075" />
              <mxPoint x="510" y="915" />
            </Array>
          </mxGeometry>
        </mxCell>
        <mxCell id="euSaoh8zayoA-fX9nJFJ-1" value="" style="whiteSpace=wrap;html=1;aspect=fixed;rounded=1;glass=0;strokeWidth=2;" vertex="1" parent="1">
          <mxGeometry x="320" y="900" width="30" height="30" as="geometry" />
        </mxCell>
        <mxCell id="euSaoh8zayoA-fX9nJFJ-4" value="" style="edgeStyle=orthogonalEdgeStyle;rounded=1;orthogonalLoop=1;jettySize=auto;html=1;strokeColor=#B09500;curved=0;strokeWidth=3;fillColor=#e3c800;" edge="1" parent="1" source="euSaoh8zayoA-fX9nJFJ-1" target="euSaoh8zayoA-fX9nJFJ-3">
          <mxGeometry relative="1" as="geometry">
            <mxPoint x="330" y="360" as="targetPoint" />
            <mxPoint x="335" y="900" as="sourcePoint" />
          </mxGeometry>
        </mxCell>
        <mxCell id="euSaoh8zayoA-fX9nJFJ-3" value="" style="whiteSpace=wrap;html=1;aspect=fixed;rounded=1;glass=0;strokeWidth=2;" vertex="1" parent="1">
          <mxGeometry x="320" y="650" width="30" height="30" as="geometry" />
        </mxCell>
        <mxCell id="euSaoh8zayoA-fX9nJFJ-8" value="" style="rounded=1;whiteSpace=wrap;html=1;strokeWidth=2;fillColor=#a0522d;fontColor=#ffffff;strokeColor=#6D1F00;" vertex="1" parent="1">
          <mxGeometry x="302" y="360" width="63" height="30" as="geometry" />
        </mxCell>
        <mxCell id="euSaoh8zayoA-fX9nJFJ-13" value="" style="endArrow=classic;html=1;rounded=1;exitX=0.25;exitY=1;exitDx=0;exitDy=0;entryX=0.25;entryY=0;entryDx=0;entryDy=0;fillColor=#0050ef;strokeColor=#001DBC;strokeWidth=3;curved=0;" edge="1" parent="1" source="euSaoh8zayoA-fX9nJFJ-8" target="euSaoh8zayoA-fX9nJFJ-3">
          <mxGeometry width="50" height="50" relative="1" as="geometry">
            <mxPoint x="400" y="710" as="sourcePoint" />
            <mxPoint x="450" y="660" as="targetPoint" />
          </mxGeometry>
        </mxCell>
        <mxCell id="euSaoh8zayoA-fX9nJFJ-14" value="" style="endArrow=classic;html=1;rounded=1;exitX=0.25;exitY=1;exitDx=0;exitDy=0;entryX=0.25;entryY=0;entryDx=0;entryDy=0;fillColor=#0050ef;strokeColor=#001DBC;strokeWidth=3;curved=0;" edge="1" parent="1" target="euSaoh8zayoA-fX9nJFJ-1">
          <mxGeometry width="50" height="50" relative="1" as="geometry">
            <mxPoint x="328.5" y="680" as="sourcePoint" />
            <mxPoint x="338.5" y="940" as="targetPoint" />
          </mxGeometry>
        </mxCell>
        <mxCell id="euSaoh8zayoA-fX9nJFJ-16" value="" style="endArrow=classic;html=1;rounded=1;entryX=1;entryY=1;entryDx=0;entryDy=0;fillColor=#0050ef;strokeColor=#001DBC;strokeWidth=3;curved=0;" edge="1" parent="1" source="U1jFTeS-qBeuXj33KEKu-35" target="euSaoh8zayoA-fX9nJFJ-8">
          <mxGeometry width="50" height="50" relative="1" as="geometry">
            <mxPoint x="338" y="410" as="sourcePoint" />
            <mxPoint x="348" y="670" as="targetPoint" />
            <Array as="points">
              <mxPoint x="370" y="560" />
            </Array>
          </mxGeometry>
        </mxCell>
        <mxCell id="euSaoh8zayoA-fX9nJFJ-18" value="" style="endArrow=classic;html=1;rounded=1;exitX=0.75;exitY=1;exitDx=0;exitDy=0;entryX=1;entryY=0;entryDx=0;entryDy=0;fillColor=#0050ef;strokeColor=#001DBC;strokeWidth=3;curved=0;" edge="1" parent="1" source="euSaoh8zayoA-fX9nJFJ-8" target="euSaoh8zayoA-fX9nJFJ-3">
          <mxGeometry width="50" height="50" relative="1" as="geometry">
            <mxPoint x="355" y="440" as="sourcePoint" />
            <mxPoint x="365" y="700" as="targetPoint" />
          </mxGeometry>
        </mxCell>
        <mxCell id="euSaoh8zayoA-fX9nJFJ-19" value="" style="endArrow=classic;html=1;rounded=1;exitX=1;exitY=1;exitDx=0;exitDy=0;entryX=1;entryY=0;entryDx=0;entryDy=0;fillColor=#0050ef;strokeColor=#001DBC;strokeWidth=3;curved=0;" edge="1" parent="1" source="euSaoh8zayoA-fX9nJFJ-3" target="euSaoh8zayoA-fX9nJFJ-1">
          <mxGeometry width="50" height="50" relative="1" as="geometry">
            <mxPoint x="390" y="690" as="sourcePoint" />
            <mxPoint x="400" y="950" as="targetPoint" />
          </mxGeometry>
        </mxCell>
        <mxCell id="euSaoh8zayoA-fX9nJFJ-20" value="" style="endArrow=classic;html=1;rounded=1;entryX=1;entryY=0.5;entryDx=0;entryDy=0;fillColor=#0050ef;strokeColor=#001DBC;strokeWidth=3;curved=0;" edge="1" parent="1" source="U1jFTeS-qBeuXj33KEKu-34" target="euSaoh8zayoA-fX9nJFJ-3">
          <mxGeometry width="50" height="50" relative="1" as="geometry">
            <mxPoint x="520" y="740" as="sourcePoint" />
            <mxPoint x="530" y="1000" as="targetPoint" />
            <Array as="points">
              <mxPoint x="500" y="800" />
              <mxPoint x="500" y="670" />
            </Array>
          </mxGeometry>
        </mxCell>
        <mxCell id="euSaoh8zayoA-fX9nJFJ-21" value="" style="endArrow=classic;html=1;rounded=1;exitX=0.75;exitY=1;exitDx=0;exitDy=0;entryX=0.75;entryY=0;entryDx=0;entryDy=0;fillColor=#0050ef;strokeColor=#001DBC;strokeWidth=3;curved=0;" edge="1" parent="1" source="euSaoh8zayoA-fX9nJFJ-3" target="euSaoh8zayoA-fX9nJFJ-1">
          <mxGeometry width="50" height="50" relative="1" as="geometry">
            <mxPoint x="400" y="770" as="sourcePoint" />
            <mxPoint x="410" y="1030" as="targetPoint" />
          </mxGeometry>
        </mxCell>
      </root>
    </mxGraphModel>
  </diagram>
</mxfile>
